<svg viewBox="0 0 1280 640" xmlns="http://www.w3.org/2000/svg">
  <!-- GitHub repository social preview (1280x640) -->
  <defs>
    <linearGradient id="sil" x1="0" y1="0" x2="0" y2="1">
      <stop offset="0" stop-color="#ffffff"/><stop offset="1" stop-color="#8d949e"/>
    </linearGradient>
    <linearGradient id="bg" x1="0" y1="0" x2="1" y2="1">
      <stop offset="0" stop-color="#0b0c0f"/><stop offset="1" stop-color="#16181d"/>
    </linearGradient>
  </defs>
  <rect width="1280" height="640" fill="url(#bg)"/>
  <g transform="translate(60 100) scale(1.05)">
    <g transform="matrix(1 -0.1 -0.2 0.82 55 62)">
      <rect x="234" y="52" width="12" height="34" rx="6" fill="#ff9f1c" transform="rotate(52 240 330)"/>
      <rect x="234" y="52" width="12" height="34" rx="6" fill="#ff9f1c" transform="rotate(67 240 330)"/>
      <rect x="234" y="52" width="12" height="34" rx="6" fill="#ff9f1c" transform="rotate(82 240 330)"/>
      <rect x="227" y="100" width="26" height="58" rx="5" fill="url(#sil)" transform="rotate(-80 240 330)"/>
      <rect x="227" y="100" width="26" height="58" rx="5" fill="url(#sil)" transform="rotate(-64 240 330)"/>
      <rect x="227" y="100" width="26" height="58" rx="5" fill="url(#sil)" transform="rotate(-48 240 330)"/>
      <rect x="227" y="100" width="26" height="58" rx="5" fill="url(#sil)" transform="rotate(-32 240 330)"/>
      <rect x="227" y="100" width="26" height="58" rx="5" fill="url(#sil)" transform="rotate(-16 240 330)"/>
      <rect x="227" y="100" width="26" height="58" rx="5" fill="url(#sil)" transform="rotate(0 240 330)"/>
      <rect x="227" y="100" width="26" height="58" rx="5" fill="url(#sil)" transform="rotate(16 240 330)"/>
      <rect x="227" y="100" width="26" height="58" rx="5" fill="url(#sil)" transform="rotate(32 240 330)"/>
      <rect x="225" y="92" width="30" height="70" rx="5" fill="#ff3b30" transform="rotate(48 240 330)"/>
      <rect x="225" y="92" width="30" height="70" rx="5" fill="#ff3b30" transform="rotate(64 240 330)"/>
      <rect x="225" y="92" width="30" height="70" rx="5" fill="#ff3b30" transform="rotate(80 240 330)"/>
      <path d="M92 330 A148 148 0 0 1 344 225" fill="none" stroke="#ff3b30" stroke-width="13" stroke-linecap="round"/>
      <g transform="rotate(60 240 330)">
        <path d="M240 118 L256 330 L240 368 Z" fill="#ffd60a"/>
        <path d="M240 118 L224 330 L240 368 Z" fill="#f2f0ea"/>
      </g>
    </g>
  </g>
  <text x="620" y="310" font-family="Impact, Arial Black, sans-serif" font-size="130" fill="#f2f0ea" letter-spacing="4">MyOverlay</text>
  <text x="626" y="375" font-family="Arial, sans-serif" font-size="30" fill="#9aa0ac" letter-spacing="5">RACING TELEMETRY OVERLAY</text>
  <rect x="626" y="410" width="130" height="8" rx="4" fill="#ff3b30"/>
  <rect x="768" y="410" width="60" height="8" rx="4" fill="#ff9f1c"/>
  <rect x="840" y="410" width="28" height="8" rx="4" fill="#ffd60a"/>
</svg>
