<svg viewBox="0 0 512 512" xmlns="http://www.w3.org/2000/svg">
  <!-- MyOverlay emblem (Tilt B) — variant for light backgrounds -->
  <defs>
    <linearGradient id="sil" x1="0" y1="0" x2="0" y2="1">
      <stop offset="0" stop-color="#6b7280"/><stop offset="1" stop-color="#3a3f4a"/>
    </linearGradient>
  </defs>
  <g transform="translate(-40 34)">
    <g transform="matrix(1 -0.1 -0.2 0.82 55 62)">
      <rect x="234" y="52" width="12" height="34" rx="6" fill="#ff9f1c" transform="rotate(52 240 330)"/>
      <rect x="234" y="52" width="12" height="34" rx="6" fill="#ff9f1c" transform="rotate(67 240 330)"/>
      <rect x="234" y="52" width="12" height="34" rx="6" fill="#ff9f1c" transform="rotate(82 240 330)"/>
      <rect x="227" y="100" width="26" height="58" rx="5" fill="url(#sil)" transform="rotate(-80 240 330)"/>
      <rect x="227" y="100" width="26" height="58" rx="5" fill="url(#sil)" transform="rotate(-64 240 330)"/>
      <rect x="227" y="100" width="26" height="58" rx="5" fill="url(#sil)" transform="rotate(-48 240 330)"/>
      <rect x="227" y="100" width="26" height="58" rx="5" fill="url(#sil)" transform="rotate(-32 240 330)"/>
      <rect x="227" y="100" width="26" height="58" rx="5" fill="url(#sil)" transform="rotate(-16 240 330)"/>
      <rect x="227" y="100" width="26" height="58" rx="5" fill="url(#sil)" transform="rotate(0 240 330)"/>
      <rect x="227" y="100" width="26" height="58" rx="5" fill="url(#sil)" transform="rotate(16 240 330)"/>
      <rect x="227" y="100" width="26" height="58" rx="5" fill="url(#sil)" transform="rotate(32 240 330)"/>
      <rect x="225" y="92" width="30" height="70" rx="5" fill="#e02d22" transform="rotate(48 240 330)"/>
      <rect x="225" y="92" width="30" height="70" rx="5" fill="#e02d22" transform="rotate(64 240 330)"/>
      <rect x="225" y="92" width="30" height="70" rx="5" fill="#e02d22" transform="rotate(80 240 330)"/>
      <path d="M92 330 A148 148 0 0 1 344 225" fill="none" stroke="#e02d22" stroke-width="13" stroke-linecap="round"/>
      <g transform="rotate(60 240 330)">
        <path d="M240 118 L256 330 L240 368 Z" fill="#f0b400"/>
        <path d="M240 118 L224 330 L240 368 Z" fill="#1b1d22"/>
      </g>
    </g>
  </g>
</svg>
